<?xml version="1.0" encoding="UTF-8"?>
<svg xmlns="http://www.w3.org/2000/svg" xmlns:xlink="http://www.w3.org/1999/xlink" width="856px" height="582px" viewBox="0 0 856 582" version="1.1">
<defs>
<filter id="alpha" filterUnits="objectBoundingBox" x="0%" y="0%" width="100%" height="100%">
  <feColorMatrix type="matrix" in="SourceGraphic" values="0 0 0 0 1 0 0 0 0 1 0 0 0 0 1 0 0 0 1 0"/>
</filter>
<mask id="mask0">
  <g filter="url(#alpha)">
<rect x="0" y="0" width="856" height="582" style="fill:rgb(0%,0%,0%);fill-opacity:0.2;stroke:none;"/>
  </g>
</mask>
<clipPath id="clip1">
  <rect x="0" y="0" width="856" height="582"/>
</clipPath>
<g id="surface5" clip-path="url(#clip1)">
<path style=" stroke:none;fill-rule:nonzero;fill:rgb(0%,0%,0%);fill-opacity:1;" d="M 605.101562 382.398438 C 604.699219 383.300781 604.300781 384.398438 603.101562 384.398438 L 538.101562 385.101562 C 537.765625 385.101562 537.464844 385.035156 537.199219 384.898438 C 536.933594 384.765625 536.699219 384.566406 536.5 384.300781 C 536.367188 384.035156 536.300781 383.734375 536.300781 383.398438 C 536.300781 383.066406 536.367188 382.765625 536.5 382.5 Z M 605.101562 382.398438 "/>
</g>
<mask id="mask1">
  <g filter="url(#alpha)">
<rect x="0" y="0" width="856" height="582" style="fill:rgb(0%,0%,0%);fill-opacity:0.2;stroke:none;"/>
  </g>
</mask>
<clipPath id="clip2">
  <rect x="0" y="0" width="856" height="582"/>
</clipPath>
<g id="surface8" clip-path="url(#clip2)">
<path style=" stroke:none;fill-rule:nonzero;fill:rgb(0%,0%,0%);fill-opacity:1;" d="M 518.699219 264.699219 L 541.398438 381.898438 C 540.699219 383.800781 537.101562 385.199219 536.300781 382.601562 C 536.300781 382.601562 513 266 513 265.898438 C 512.699219 263.101562 517.398438 263 518.699219 264.699219 Z M 518.699219 264.699219 "/>
</g>
</defs>
<g id="surface1">
<path style=" stroke:none;fill-rule:nonzero;fill:rgb(90.196079%,90.196079%,90.196079%);fill-opacity:1;" d="M 519.699219 326.199219 C 520.433594 326.199219 521.132812 326.367188 521.800781 326.699219 C 522.535156 326.964844 523.132812 327.332031 523.601562 327.800781 C 524.132812 328.332031 524.535156 328.933594 524.800781 329.601562 C 525.066406 330.265625 525.199219 330.964844 525.199219 331.699219 L 525.199219 384.898438 L 630.699219 384.898438 C 632.199219 384.898438 633.601562 385.5 634.601562 386.601562 C 635.699219 387.601562 636.199219 389 636.199219 390.398438 C 636.199219 391.898438 635.699219 393.300781 634.601562 394.300781 C 633.601562 395.398438 632.199219 395.898438 630.699219 395.898438 L 525.199219 395.898438 L 525.199219 579.898438 L 514.199219 579.898438 L 514.199219 331.699219 C 514.199219 330.964844 514.367188 330.265625 514.699219 329.601562 C 514.964844 328.933594 515.367188 328.332031 515.898438 327.800781 C 516.367188 327.332031 516.933594 326.964844 517.601562 326.699219 C 518.265625 326.367188 518.964844 326.199219 519.699219 326.199219 Z M 519.699219 326.199219 "/>
<path style=" stroke:none;fill-rule:nonzero;fill:rgb(24.705882%,23.921569%,33.725491%);fill-opacity:1;" d="M 226.101562 578.699219 L 206.300781 579.199219 C 205.566406 579.265625 204.832031 579.265625 204.101562 579.199219 C 203.367188 579.132812 202.632812 578.964844 201.898438 578.699219 C 201.167969 578.5 200.464844 578.265625 199.800781 578 C 199.132812 577.667969 198.464844 577.300781 197.800781 576.898438 C 195.699219 575.300781 194.699219 573.101562 195.101562 570.898438 L 199 551.300781 C 199.800781 547.601562 204.300781 544.800781 209.800781 544.699219 L 220.800781 544.398438 C 226.300781 544.199219 230.898438 546.699219 231.898438 550.398438 L 236.898438 569.800781 C 237.398438 571.898438 236.601562 574.101562 234.5 575.898438 C 233.898438 576.300781 233.265625 576.699219 232.601562 577.101562 C 231.933594 577.433594 231.265625 577.734375 230.601562 578 C 229.867188 578.199219 229.132812 578.367188 228.398438 578.5 C 227.667969 578.632812 226.898438 578.699219 226.101562 578.699219 Z M 226.101562 578.699219 "/>
<path style=" stroke:none;fill-rule:nonzero;fill:rgb(24.705882%,23.921569%,33.725491%);fill-opacity:1;" d="M 346.800781 578.101562 L 326.898438 578.699219 C 326.167969 578.699219 325.433594 578.667969 324.699219 578.601562 C 323.964844 578.535156 323.234375 578.398438 322.5 578.199219 C 321.765625 578 321.066406 577.734375 320.398438 577.398438 C 319.734375 577.066406 319.101562 576.699219 318.5 576.300781 C 316.300781 574.699219 315.300781 572.5 315.800781 570.398438 L 319.699219 550.699219 C 320.398438 547 324.898438 544.199219 330.398438 544.101562 L 341.398438 543.800781 C 346.898438 543.601562 351.601562 546.199219 352.5 549.800781 L 357.5 569.199219 C 358 571.398438 357.199219 573.601562 355.101562 575.300781 C 354.5 575.765625 353.867188 576.167969 353.199219 576.5 C 352.535156 576.832031 351.867188 577.132812 351.199219 577.398438 C 350.464844 577.667969 349.734375 577.832031 349 577.898438 C 348.265625 578.035156 347.535156 578.101562 346.800781 578.101562 Z M 346.800781 578.101562 "/>
<path style=" stroke:none;fill-rule:nonzero;fill:rgb(24.705882%,23.921569%,33.725491%);fill-opacity:1;" d="M 157.300781 411.601562 C 156.398438 411.199219 155.601562 410.601562 155.199219 409.699219 C 154.699219 408.800781 154.601562 407.800781 154.699219 406.800781 C 154.898438 405.898438 155.398438 405 156.199219 404.398438 C 156.898438 403.699219 157.898438 403.300781 158.898438 403.300781 L 384.300781 397.101562 C 384.898438 397.101562 385.464844 397.199219 386 397.398438 C 386.535156 397.601562 387 397.898438 387.398438 398.300781 C 387.867188 398.699219 388.199219 399.167969 388.398438 399.699219 C 388.667969 400.167969 388.800781 400.699219 388.800781 401.300781 C 388.800781 401.898438 388.699219 402.464844 388.5 403 C 388.300781 403.535156 388 404 387.601562 404.398438 C 387.199219 404.800781 386.734375 405.132812 386.199219 405.398438 C 385.667969 405.601562 385.132812 405.734375 384.601562 405.800781 L 159.101562 412 C 158.964844 412 158.800781 412 158.601562 412 C 158.464844 411.933594 158.332031 411.898438 158.199219 411.898438 C 158 411.898438 157.832031 411.867188 157.699219 411.800781 C 157.566406 411.734375 157.433594 411.667969 157.300781 411.601562 Z M 157.300781 411.601562 "/>
<path style=" stroke:none;fill-rule:nonzero;fill:rgb(90.196079%,90.196079%,90.196079%);fill-opacity:1;" d="M 176 338.800781 L 240.5 337 L 246.5 554.601562 L 182.101562 556.398438 Z M 176 338.800781 "/>
<path style=" stroke:none;fill-rule:nonzero;fill:rgb(80.000001%,80.000001%,80.000001%);fill-opacity:1;" d="M 242.101562 333.101562 L 244.800781 524.898438 L 229.699219 520.601562 L 229.699219 366.800781 Z M 242.101562 333.101562 "/>
<path style=" stroke:none;fill-rule:nonzero;fill:rgb(24.705882%,23.921569%,33.725491%);fill-opacity:1;" d="M 230.601562 308.300781 L 231 323 L 187.300781 324.199219 L 186.898438 309.5 C 186.699219 301.300781 195.898438 280.5 207.898438 280.101562 C 220 279.800781 230.300781 300.101562 230.601562 308.300781 Z M 230.601562 308.300781 "/>
<path style=" stroke:none;fill-rule:nonzero;fill:rgb(24.705882%,23.921569%,33.725491%);fill-opacity:1;" d="M 176.898438 428.898438 C 175.800781 428.898438 174.699219 428.699219 173.601562 428.300781 C 172.601562 427.898438 171.601562 427.300781 170.800781 426.601562 C 170 425.800781 169.300781 424.898438 168.898438 423.898438 C 168.398438 422.800781 168.199219 421.699219 168.101562 420.601562 L 167.5 396.601562 C 167.398438 394.398438 168.300781 392.199219 169.800781 390.601562 C 171.398438 388.898438 173.5 388 175.699219 387.898438 C 178 387.800781 180.199219 388.699219 181.800781 390.199219 C 183.5 391.800781 184.398438 393.898438 184.5 396.199219 L 185.101562 420.101562 C 185.199219 421.300781 185 422.398438 184.601562 423.398438 C 184.199219 424.5 183.601562 425.398438 182.800781 426.199219 C 182 427 181.101562 427.699219 180.101562 428.101562 C 179.101562 428.601562 178 428.800781 176.898438 428.898438 Z M 176.898438 428.898438 "/>
<path style=" stroke:none;fill-rule:nonzero;fill:rgb(24.705882%,23.921569%,33.725491%);fill-opacity:1;" d="M 193.199219 339.300781 L 192.898438 323.398438 L 197.101562 323.300781 L 197.398438 339.101562 L 201.199219 569.5 L 197 569.601562 "/>
<path style=" stroke:none;fill-rule:nonzero;fill:rgb(90.196079%,90.196079%,90.196079%);fill-opacity:1;" d="M 247.898438 376.398438 L 173.101562 378.398438 C 166 369.699219 165.398438 332.601562 180.300781 325.601562 L 186.101562 315.699219 L 231.101562 313.5 L 236.398438 323.898438 C 243.800781 330.199219 247.601562 367.101562 247.898438 376.398438 Z M 247.898438 376.398438 "/>
<path style=" stroke:none;fill-rule:nonzero;fill:rgb(5.490196%,63.529414%,74.117649%);fill-opacity:1;" d="M 219.800781 358.601562 L 200.898438 359.101562 C 197.199219 359.199219 194.101562 354.5 193.898438 348.5 C 193.800781 342.601562 196.601562 337.699219 200.300781 337.601562 L 219.199219 337.101562 C 222.800781 337 225.898438 341.699219 226.101562 347.699219 C 226.199219 353.601562 223.398438 358.5 219.800781 358.601562 Z M 219.800781 358.601562 "/>
<path style=" stroke:none;fill-rule:nonzero;fill:rgb(90.196079%,90.196079%,90.196079%);fill-opacity:1;" d="M 183.199219 465.601562 L 182.800781 540 L 137.398438 555.101562 L 144.199219 493.101562 Z M 183.199219 465.601562 "/>
<path style=" stroke:none;fill-rule:nonzero;fill:rgb(90.196079%,90.196079%,90.196079%);fill-opacity:1;" d="M 300.5 336.101562 L 364.898438 334.300781 L 370.898438 551.898438 L 306.5 553.699219 Z M 300.5 336.101562 "/>
<path style=" stroke:none;fill-rule:nonzero;fill:rgb(80.000001%,80.000001%,80.000001%);fill-opacity:1;" d="M 302 333.800781 L 315.300781 367.199219 L 319.199219 520.898438 L 304.300781 525.601562 Z M 302 333.800781 "/>
<path style=" stroke:none;fill-rule:nonzero;fill:rgb(90.196079%,90.196079%,90.196079%);fill-opacity:1;" d="M 397.101562 273.898438 C 392.5 273.898438 388.699219 268.800781 388.699219 262.601562 C 388.699219 256.300781 392.5 251.300781 397.101562 251.300781 C 401.800781 251.300781 405.601562 256.300781 405.601562 262.601562 C 405.601562 268.800781 401.800781 273.898438 397.101562 273.898438 Z M 397.101562 273.898438 "/>
<path style=" stroke:none;fill-rule:nonzero;fill:rgb(24.705882%,23.921569%,33.725491%);fill-opacity:1;" d="M 353.699219 305.601562 L 354.101562 320.398438 L 310.5 321.601562 L 310 306.800781 C 309.800781 298.699219 319 277.800781 331.101562 277.5 C 343.101562 277.199219 353.5 297.5 353.699219 305.601562 Z M 353.699219 305.601562 "/>
<path style=" stroke:none;fill-rule:nonzero;fill:rgb(24.705882%,23.921569%,33.725491%);fill-opacity:1;" d="M 343.601562 344.199219 L 343.300781 328.398438 L 347.398438 328.300781 L 347.699219 344.101562 L 351.5 574.398438 L 347.300781 574.601562 "/>
<path style=" stroke:none;fill-rule:nonzero;fill:rgb(90.196079%,90.196079%,90.196079%);fill-opacity:1;" d="M 371 373.699219 L 296.300781 375.800781 C 295 367.898438 296.699219 331.199219 303.398438 322.898438 L 309.199219 313 L 354.300781 310.800781 L 359.601562 321.300781 C 372.898438 322.398438 377.5 358.5 371 373.699219 Z M 371 373.699219 "/>
<path style=" stroke:none;fill-rule:nonzero;fill:rgb(5.490196%,63.529414%,74.117649%);fill-opacity:1;" d="M 343 359.300781 L 324.101562 359.800781 C 320.398438 359.898438 317.300781 354.398438 317.101562 347.601562 C 316.898438 340.699219 319.800781 335.101562 323.398438 335 L 342.300781 334.5 C 346 334.398438 349.101562 339.898438 349.300781 346.699219 C 349.5 353.5 346.601562 359.199219 343 359.300781 Z M 343 359.300781 "/>
<path style=" stroke:none;fill-rule:nonzero;fill:rgb(90.196079%,90.196079%,90.196079%);fill-opacity:1;" d="M 368.101562 449.699219 L 405.699219 478.898438 L 409.699219 541.199219 L 365 524 Z M 368.101562 449.699219 "/>
<path style=" stroke:none;fill-rule:nonzero;fill:rgb(94.901961%,94.901961%,94.901961%);fill-opacity:1;" d="M 357.601562 161.101562 C 317.199219 161.101562 270.699219 116.300781 229.601562 137.601562 C 105.199219 202.101562 122.300781 94.101562 86.601562 54 L 87.800781 51.601562 C 114.800781 154.898438 139.300781 319.300781 230.199219 134.800781 C 252.898438 88.601562 327.601562 160.101562 371.601562 158 L 371.699219 160.800781 C 367.035156 161 362.332031 161.101562 357.601562 161.101562 Z M 357.601562 161.101562 "/>
<path style=" stroke:none;fill-rule:nonzero;fill:rgb(94.901961%,94.901961%,94.901961%);fill-opacity:1;" d="M 454.601562 167.5 C 422.300781 191.898438 358.199219 184.199219 338.398438 226 C 278.101562 352.5 226.601562 256.101562 173.898438 245.699219 L 173.398438 243.101562 C 226.199219 247.5 282.800781 240.699219 337.101562 223.398438 C 386.199219 207.898438 430 184.699219 463.800781 156.5 L 465.601562 158.699219 C 462 161.699219 458.332031 164.632812 454.601562 167.5 Z M 454.601562 167.5 "/>
<path style=" stroke:none;fill-rule:nonzero;fill:rgb(90.196079%,90.196079%,90.196079%);fill-opacity:1;" d="M 104.101562 161.898438 C 99.5 161.898438 95.699219 156.800781 95.699219 150.601562 C 95.699219 144.300781 99.5 139.300781 104.101562 139.300781 C 108.800781 139.300781 112.601562 144.300781 112.601562 150.601562 C 112.601562 156.800781 108.800781 161.898438 104.101562 161.898438 Z M 104.101562 161.898438 "/>
<path style=" stroke:none;fill-rule:nonzero;fill:rgb(90.196079%,90.196079%,90.196079%);fill-opacity:1;" d="M 366.101562 69.898438 C 361.5 69.898438 357.699219 64.800781 357.699219 58.601562 C 357.699219 52.300781 361.5 47.300781 366.101562 47.300781 C 370.800781 47.300781 374.601562 52.300781 374.601562 58.601562 C 374.601562 64.800781 370.800781 69.898438 366.101562 69.898438 Z M 366.101562 69.898438 "/>
<path style=" stroke:none;fill-rule:nonzero;fill:rgb(90.196079%,90.196079%,90.196079%);fill-opacity:1;" d="M 181.5 207.601562 C 177.601562 210.199219 173.699219 204.101562 177.601562 201.601562 C 181.5 199 185.398438 205.199219 181.5 207.601562 Z M 181.5 207.601562 "/>
<path style=" stroke:none;fill-rule:nonzero;fill:rgb(90.196079%,90.196079%,90.196079%);fill-opacity:1;" d="M 324.5 6.601562 C 320.601562 9.199219 316.699219 3.101562 320.601562 0.601562 C 324.5 -2 328.398438 4.199219 324.5 6.601562 Z M 324.5 6.601562 "/>
<path style=" stroke:none;fill-rule:nonzero;fill:rgb(90.196079%,90.196079%,90.196079%);fill-opacity:1;" d="M 408.699219 125.800781 L 408.398438 127.398438 L 405.898438 126.898438 L 405.398438 129.398438 L 403.800781 129 L 404.300781 126.5 L 401.800781 126 L 402.199219 124.398438 L 404.699219 124.898438 L 405.199219 122.398438 L 406.800781 122.800781 L 406.300781 125.300781 Z M 408.699219 125.800781 "/>
<path style=" stroke:none;fill-rule:nonzero;fill:rgb(100%,39.607844%,51.764709%);fill-opacity:1;" d="M 183.5 43.398438 C 177.601562 43.398438 172.800781 38.699219 172.800781 32.699219 C 172.800781 26.800781 177.601562 22 183.5 22 C 189.5 22 194.199219 26.800781 194.199219 32.699219 C 194.199219 38.699219 189.5 43.398438 183.5 43.398438 Z M 183.5 43.398438 "/>
<path style=" stroke:none;fill-rule:nonzero;fill:rgb(24.705882%,23.921569%,33.725491%);fill-opacity:1;" d="M 284.398438 47.300781 L 284.800781 62.101562 L 241.199219 63.300781 L 240.800781 48.5 C 240.601562 40.398438 249.800781 19.5 261.800781 19.199219 C 273.898438 18.898438 284.199219 39.199219 284.398438 47.300781 Z M 284.398438 47.300781 "/>
<path style=" stroke:none;fill-rule:nonzero;fill:rgb(24.705882%,23.921569%,33.725491%);fill-opacity:1;" d="M 287.800781 577.398438 L 268 578 C 267.265625 578 266.5 577.964844 265.699219 577.898438 C 264.964844 577.832031 264.234375 577.699219 263.5 577.5 C 262.832031 577.300781 262.132812 577.035156 261.398438 576.699219 C 260.734375 576.367188 260.101562 576 259.5 575.601562 C 257.300781 574 256.398438 571.800781 256.800781 569.601562 L 260.699219 550 C 261.398438 546.300781 266 543.5 271.5 543.398438 L 282.398438 543.101562 C 287.898438 542.898438 292.601562 545.5 293.601562 549.101562 L 298.5 568.5 C 299.101562 570.601562 298.199219 572.800781 296.199219 574.601562 C 295.601562 575 294.964844 575.398438 294.300781 575.800781 C 293.632812 576.132812 292.933594 576.433594 292.199219 576.699219 C 291.535156 576.898438 290.800781 577.066406 290 577.199219 C 289.265625 577.332031 288.535156 577.398438 287.800781 577.398438 Z M 287.800781 577.398438 "/>
<path style=" stroke:none;fill-rule:nonzero;fill:rgb(90.196079%,90.196079%,90.196079%);fill-opacity:1;" d="M 232.199219 114.800781 L 296.699219 113 L 308.800781 552.898438 L 244.398438 554.699219 Z M 232.199219 114.800781 "/>
<path style=" stroke:none;fill-rule:nonzero;fill:rgb(24.705882%,23.921569%,33.725491%);fill-opacity:1;" d="M 270.898438 325.898438 L 270.601562 310.101562 L 274.699219 310 L 275 325.800781 L 278.800781 556.101562 L 274.601562 556.300781 "/>
<path style=" stroke:none;fill-rule:nonzero;fill:rgb(90.196079%,90.196079%,90.196079%);fill-opacity:1;" d="M 309.300781 153.300781 L 222 155.699219 C 220.5 146.5 222.5 103.601562 230.300781 94 L 232.5 82.5 L 292.800781 80.800781 L 295.898438 92 C 304.601562 99.398438 309.101562 142.398438 309.300781 153.300781 Z M 309.300781 153.300781 "/>
<path style=" stroke:none;fill-rule:nonzero;fill:rgb(90.196079%,90.196079%,90.196079%);fill-opacity:1;" d="M 294.699219 82.199219 L 232.5 83.898438 C 230.199219 84 228.300781 82.800781 228.199219 81.199219 C 228.199219 81.132812 228.199219 81.066406 228.199219 81 C 228.199219 81 228.199219 80.964844 228.199219 80.898438 C 228.265625 80.832031 228.300781 80.765625 228.300781 80.699219 C 228.300781 80.632812 228.300781 80.566406 228.300781 80.5 L 238 50.800781 C 238.398438 49.5 240 48.601562 242 48.5 L 283.199219 47.398438 C 285.199219 47.300781 286.898438 48.199219 287.300781 49.398438 L 298.601562 78.601562 C 299.199219 80.101562 297.898438 81.601562 295.699219 82.101562 C 295.566406 82.101562 295.464844 82.101562 295.398438 82.101562 C 295.332031 82.101562 295.265625 82.101562 295.199219 82.101562 C 295.066406 82.167969 294.964844 82.199219 294.898438 82.199219 C 294.832031 82.199219 294.765625 82.199219 294.699219 82.199219 Z M 294.699219 82.199219 "/>
<path style=" stroke:none;fill-rule:nonzero;fill:rgb(24.705882%,23.921569%,33.725491%);fill-opacity:1;" d="M 238.601562 323.898438 C 238.464844 323.832031 238.332031 323.765625 238.199219 323.699219 C 238.066406 323.632812 237.933594 323.566406 237.800781 323.5 C 237.667969 323.433594 237.535156 323.367188 237.398438 323.300781 C 237.265625 323.167969 237.132812 323.066406 237 323 C 236.667969 322.734375 236.367188 322.464844 236.101562 322.199219 C 235.765625 321.867188 235.5 321.5 235.300781 321.101562 C 235.101562 320.765625 234.933594 320.367188 234.800781 319.898438 C 234.734375 319.5 234.667969 319.101562 234.601562 318.699219 L 232.398438 236.800781 C 232.300781 233.398438 235.601562 230.601562 239.800781 230.5 L 295.5 228.898438 C 299.699219 228.800781 303.101562 231.5 303.199219 234.898438 L 305.5 316.699219 C 305.5 317.167969 305.433594 317.601562 305.300781 318 C 305.234375 318.398438 305.101562 318.800781 304.898438 319.199219 C 304.699219 319.601562 304.464844 319.964844 304.199219 320.300781 C 303.933594 320.632812 303.632812 320.933594 303.300781 321.199219 C 302.964844 321.464844 302.601562 321.734375 302.199219 322 C 301.734375 322.199219 301.300781 322.398438 300.898438 322.601562 C 300.433594 322.734375 299.964844 322.867188 299.5 323 C 299.035156 323.066406 298.566406 323.101562 298.101562 323.101562 L 242.398438 324.601562 C 242.066406 324.601562 241.734375 324.601562 241.398438 324.601562 C 241.066406 324.601562 240.765625 324.566406 240.5 324.5 C 240.167969 324.433594 239.832031 324.367188 239.5 324.300781 C 239.167969 324.167969 238.867188 324.035156 238.601562 323.898438 Z M 238.601562 323.898438 "/>
<path style=" stroke:none;fill-rule:nonzero;fill:rgb(5.490196%,63.529414%,74.117649%);fill-opacity:1;" d="M 274.300781 76.898438 L 255.398438 77.398438 C 251.699219 77.5 248.601562 73.398438 248.5 68.199219 C 248.300781 63.101562 251.199219 58.800781 254.800781 58.699219 L 273.699219 58.199219 C 277.398438 58.101562 280.5 62.199219 280.601562 67.398438 C 280.800781 72.5 277.898438 76.800781 274.300781 76.898438 Z M 274.300781 76.898438 "/>
<path style=" stroke:none;fill-rule:nonzero;fill:rgb(90.196079%,90.196079%,90.196079%);fill-opacity:1;" d="M 726.699219 564.898438 C 728.199219 566.398438 729 568.398438 729 570.5 C 729 572.699219 728.199219 574.699219 726.699219 576.199219 C 725.199219 577.699219 723.101562 578.5 721 578.5 L 661 578.5 C 658.898438 578.5 656.898438 577.699219 655.398438 576.199219 C 653.898438 574.699219 653 572.699219 653 570.5 C 653 568.398438 653.898438 566.398438 655.398438 564.898438 C 656.898438 563.398438 658.898438 562.5 661 562.5 L 683 562.5 L 683 402.699219 C 664.300781 401.398438 650.199219 395.800781 650.199219 388.898438 C 650.199219 381.199219 668.398438 374.898438 690.699219 374.898438 C 713.101562 374.898438 731.199219 381.199219 731.199219 388.898438 C 731.199219 395.699219 717.398438 401.300781 699 402.699219 L 699 562.5 L 721 562.5 C 723.101562 562.5 725.199219 563.398438 726.699219 564.898438 Z M 726.699219 564.898438 "/>
<path style=" stroke:none;fill-rule:nonzero;fill:rgb(62.7451%,38.039216%,41.568628%);fill-opacity:1;" d="M 676.800781 481.398438 L 669.601562 489.199219 L 635.800781 465.101562 L 646.5 453.5 Z M 676.800781 481.398438 "/>
<path style=" stroke:none;fill-rule:nonzero;fill:rgb(18.431373%,18.039216%,25.490198%);fill-opacity:1;" d="M 658.5 499.5 C 658.632812 498.632812 658.867188 497.800781 659.199219 497 C 659.464844 496.132812 659.832031 495.332031 660.300781 494.601562 C 660.765625 493.867188 661.300781 493.167969 661.898438 492.5 L 662.601562 484.601562 L 663 484.5 L 664.898438 483.601562 L 674.101562 479.199219 L 674.300781 479 L 676.101562 477 L 686.300781 486.398438 L 672.5 501.398438 L 663 511.800781 L 662.699219 511.5 C 662.035156 510.898438 661.433594 510.234375 660.898438 509.5 C 660.433594 508.765625 660 508 659.601562 507.199219 C 659.199219 506.398438 658.898438 505.601562 658.699219 504.800781 C 658.5 503.933594 658.398438 503.035156 658.398438 502.101562 C 658.332031 501.234375 658.367188 500.367188 658.5 499.5 Z M 658.5 499.5 "/>
<path style=" stroke:none;fill-rule:nonzero;fill:rgb(62.7451%,38.039216%,41.568628%);fill-opacity:1;" d="M 714.300781 559.898438 L 704.101562 563 L 687.199219 525.101562 L 702.300781 520.5 Z M 714.300781 559.898438 "/>
<path style=" stroke:none;fill-rule:nonzero;fill:rgb(18.431373%,18.039216%,25.490198%);fill-opacity:1;" d="M 686.300781 573.398438 C 686.5 571.699219 687 570 687.800781 568.398438 C 688.601562 566.898438 689.800781 565.5 691.101562 564.398438 C 692.5 563.300781 694.101562 562.398438 695.699219 561.898438 L 700.398438 555.5 L 700.699219 555.5 L 713 556.699219 L 713.300781 556.601562 L 715.898438 555.800781 L 719.898438 569 L 686.898438 579.101562 L 686.800781 578.601562 C 686.300781 577 686.101562 575.199219 686.300781 573.398438 Z M 686.300781 573.398438 "/>
<path style=" stroke:none;fill-rule:nonzero;fill:rgb(18.431373%,18.039216%,25.490198%);fill-opacity:1;" d="M 704.300781 370.101562 L 687 461.699219 C 687.199219 470 708.800781 527.800781 708.800781 527.800781 L 688.101562 535.898438 C 688.101562 535.898438 655.199219 465.800781 656.398438 457.699219 L 658.601562 442.199219 L 660 398.699219 C 654.199219 398.300781 645.898438 406.398438 638.300781 415.800781 C 637 417.300781 632.5 417 631.300781 418.601562 C 629.898438 420.464844 628.601562 422.398438 627.398438 424.398438 C 626.132812 426.398438 625 428.464844 624 430.601562 C 622.933594 432.734375 621.964844 434.867188 621.101562 437 C 620.167969 439.199219 619.367188 441.433594 618.699219 443.699219 L 605.898438 443.699219 C 564.699219 424.199219 630 361.101562 630 361.101562 Z M 704.300781 370.101562 "/>
<path style=" stroke:none;fill-rule:nonzero;fill:rgb(5.490196%,63.529414%,74.117649%);fill-opacity:1;" d="M 625.101562 358.898438 C 627.101562 355.101562 631.601562 350.300781 635.101562 345.800781 C 639 340.800781 639.699219 334.101562 639.699219 334.101562 L 638.101562 328.398438 L 639.5 324.898438 L 639 299 L 639 295.800781 L 625.398438 254.601562 L 625.300781 254.300781 L 654.199219 235.800781 L 658.5 229.699219 C 658.765625 229.367188 659.066406 229.066406 659.398438 228.800781 C 659.734375 228.535156 660.066406 228.300781 660.398438 228.101562 C 660.800781 227.964844 661.199219 227.832031 661.601562 227.699219 C 662 227.632812 662.398438 227.601562 662.800781 227.601562 L 678.898438 227.601562 C 679.433594 227.601562 679.964844 227.699219 680.5 227.898438 C 680.964844 228.035156 681.433594 228.265625 681.898438 228.601562 C 682.300781 228.867188 682.667969 229.199219 683 229.601562 C 683.332031 230 683.601562 230.464844 683.800781 231 L 685.101562 234.398438 L 709.601562 246.5 L 710 246.699219 L 710.300781 247.300781 L 702.800781 295.101562 C 702.800781 295.101562 703.101562 298.199219 703.5 303.199219 C 704.199219 311 705.300781 323.300781 706.101562 335.300781 C 706.199219 337.101562 704 338.699219 704.101562 340.5 C 704.199219 342.800781 706.699219 345.300781 706.800781 347.5 C 707.398438 359.398438 707.5 369.300781 706.5 371.601562 C 706.199219 372.398438 705.199219 372.898438 703.601562 373.300781 C 691.199219 376.601562 643.199219 369.699219 628.5 366.398438 C 628.234375 366.332031 628 366.265625 627.800781 366.199219 C 627.535156 366.132812 627.300781 366.066406 627.101562 366 C 626.832031 365.933594 626.601562 365.832031 626.398438 365.699219 C 626.199219 365.632812 626 365.535156 625.800781 365.398438 C 625.667969 365.332031 625.535156 365.265625 625.398438 365.199219 C 625.265625 365.066406 625.167969 364.964844 625.101562 364.898438 C 624.964844 364.765625 624.867188 364.667969 624.800781 364.601562 C 624.667969 364.464844 624.566406 364.332031 624.5 364.199219 C 623.601562 362.800781 623.898438 361 625.101562 358.898438 Z M 625.101562 358.898438 "/>
<path style=" stroke:none;fill-rule:nonzero;fill:rgb(18.431373%,18.039216%,25.490198%);fill-opacity:1;" d="M 621.5 429.199219 L 631.199219 437.898438 C 633.066406 438.699219 634.898438 439.601562 636.699219 440.601562 C 638.433594 441.667969 640.132812 442.800781 641.800781 444 C 643.398438 445.265625 644.933594 446.601562 646.398438 448 C 647.867188 449.464844 649.234375 451 650.5 452.601562 L 656.800781 460.601562 L 644.601562 473.699219 L 639.5 468.898438 C 638.398438 466.800781 606.300781 444.300781 606.300781 444.300781 L 602.800781 439.898438 Z M 621.5 429.199219 "/>
<path style=" stroke:none;fill-rule:nonzero;fill:rgb(62.7451%,38.039216%,41.568628%);fill-opacity:1;" d="M 718.398438 379.101562 L 712.601562 322.601562 L 711 299.300781 L 727.398438 296.300781 C 727.398438 296.300781 726.699219 313 728.898438 322.398438 C 731 331.601562 729.199219 377.898438 729 379.101562 C 731.5 381.300781 732.300781 384.800781 731.199219 387.898438 C 730 391 727 393 723.699219 393 C 720.398438 393 717.5 391 716.300781 387.898438 C 715.101562 384.800781 716 381.300781 718.398438 379.101562 Z M 718.398438 379.101562 "/>
<path style=" stroke:none;fill-rule:nonzero;fill:rgb(5.490196%,63.529414%,74.117649%);fill-opacity:1;" d="M 709.601562 246.5 L 710 246.699219 L 710.300781 247.300781 L 716.199219 256.800781 C 718.601562 259.398438 720.199219 263.101562 722.898438 266.800781 C 731.601562 278.5 732.5 307 732.300781 322.601562 C 732.199219 322.898438 732.5 323.199219 732.800781 323.5 C 733.535156 324.167969 734.132812 324.933594 734.601562 325.800781 C 735.066406 326.667969 735.367188 327.601562 735.5 328.601562 C 735.632812 329.601562 735.601562 330.566406 735.398438 331.5 C 735.199219 332.5 734.867188 333.433594 734.398438 334.300781 L 729.800781 335.199219 L 714.199219 338.5 L 713.398438 338.601562 L 711.5 331.300781 L 709.398438 329 L 705.101562 306.601562 L 703.5 303.199219 L 698.898438 293.398438 Z M 709.601562 246.5 "/>
<path style=" stroke:none;fill-rule:nonzero;fill:rgb(62.7451%,38.039216%,41.568628%);fill-opacity:1;" d="M 672.101562 223.601562 C 660.300781 223.601562 650.699219 214 650.699219 202.101562 C 650.699219 190.300781 660.300781 180.699219 672.101562 180.699219 C 684 180.699219 693.601562 190.300781 693.601562 202.101562 C 693.601562 214 684 223.601562 672.101562 223.601562 Z M 672.101562 223.601562 "/>
<path style=" stroke:none;fill-rule:nonzero;fill:rgb(18.431373%,18.039216%,25.490198%);fill-opacity:1;" d="M 688.300781 217.101562 C 688.167969 217.300781 688 217.5 687.800781 217.699219 C 687.601562 217.832031 687.398438 217.964844 687.199219 218.101562 C 686.933594 218.234375 686.699219 218.367188 686.5 218.5 C 686.234375 218.566406 685.964844 218.632812 685.699219 218.699219 C 685.5 218.699219 683.300781 217.101562 683.898438 216.800781 C 684.398438 216.5 684.898438 216 685.199219 215.5 C 685.601562 215 685.699219 214.300781 685.800781 213.699219 C 685.800781 213.101562 685.601562 212.5 685.300781 211.898438 C 685 211.300781 684.601562 210.898438 684 210.5 C 683.933594 210.5 683.832031 210.464844 683.699219 210.398438 C 683.632812 210.332031 683.566406 210.300781 683.5 210.300781 C 683.367188 210.234375 683.265625 210.167969 683.199219 210.101562 C 683.066406 210.101562 682.964844 210.066406 682.898438 210 C 682.765625 210 682.667969 209.964844 682.601562 209.898438 C 682.464844 209.832031 682.367188 209.800781 682.300781 209.800781 C 682.167969 209.734375 682.066406 209.667969 682 209.601562 C 681.867188 209.535156 681.765625 209.5 681.699219 209.5 C 681.234375 209.167969 680.832031 208.800781 680.5 208.398438 C 680.167969 208 679.867188 207.535156 679.601562 207 C 679.398438 206.535156 679.265625 206.035156 679.199219 205.5 C 679.132812 204.964844 679.101562 204.433594 679.101562 203.898438 C 679.167969 203.433594 679.265625 202.964844 679.398438 202.5 C 679.464844 202.035156 679.566406 201.601562 679.699219 201.199219 C 679.898438 200.734375 680.066406 200.265625 680.199219 199.800781 C 680.398438 199.398438 680.601562 198.964844 680.800781 198.5 C 678.464844 198.433594 676.167969 198.234375 673.898438 197.898438 C 671.632812 197.632812 669.367188 197.234375 667.101562 196.699219 C 664.832031 196.234375 662.601562 195.632812 660.398438 194.898438 C 658.199219 194.167969 656.035156 193.332031 653.898438 192.398438 C 653.632812 192.332031 653.398438 192.234375 653.199219 192.101562 C 652.933594 191.964844 652.667969 191.832031 652.398438 191.699219 C 652.132812 191.566406 651.898438 191.398438 651.699219 191.199219 C 651.433594 191.066406 651.167969 190.898438 650.898438 190.699219 C 650.699219 190.5 650.5 190.300781 650.300781 190.101562 C 649.765625 189.699219 649.300781 189.265625 648.898438 188.800781 C 648.5 188.265625 648.101562 187.734375 647.699219 187.199219 C 647.367188 186.667969 647.035156 186.101562 646.699219 185.5 C 646.433594 184.964844 646.199219 184.367188 646 183.699219 C 645.933594 183.566406 645.898438 183.398438 645.898438 183.199219 C 645.898438 183.066406 645.933594 182.898438 646 182.699219 C 646.066406 182.566406 646.132812 182.433594 646.199219 182.300781 C 646.332031 182.101562 646.464844 181.964844 646.601562 181.898438 C 646.667969 181.832031 646.765625 181.765625 646.898438 181.699219 C 647.035156 181.632812 647.132812 181.601562 647.199219 181.601562 C 647.332031 181.601562 647.464844 181.566406 647.601562 181.5 C 647.734375 181.5 647.832031 181.535156 647.898438 181.601562 L 647.800781 180.601562 C 647.734375 180.332031 647.765625 180.066406 647.898438 179.800781 C 648.035156 179.464844 648.199219 179.199219 648.398438 179 C 648.667969 178.800781 648.933594 178.699219 649.199219 178.699219 C 649.535156 178.632812 649.832031 178.667969 650.101562 178.800781 L 651.199219 179.199219 L 651.300781 178.398438 C 651.300781 178.132812 651.367188 177.867188 651.5 177.601562 C 651.699219 177.332031 651.933594 177.132812 652.199219 177 C 652.464844 176.867188 652.734375 176.800781 653 176.800781 C 653.332031 176.800781 653.601562 176.898438 653.800781 177.101562 C 653.933594 177.167969 654.066406 177.199219 654.199219 177.199219 C 654.332031 177.265625 654.464844 177.300781 654.601562 177.300781 C 654.734375 177.367188 654.867188 177.367188 655 177.300781 C 655.132812 177.300781 655.265625 177.300781 655.398438 177.300781 C 655.535156 177.234375 655.667969 177.167969 655.800781 177.101562 C 655.867188 177.035156 655.964844 176.964844 656.101562 176.898438 C 656.167969 176.765625 656.234375 176.667969 656.300781 176.601562 C 656.433594 176.464844 656.5 176.332031 656.5 176.199219 L 657.300781 174.398438 L 657.398438 174.300781 C 660 171.398438 664.199219 169.699219 669 169.800781 C 673.199219 169.800781 677.300781 171 681.300781 172.199219 C 681.699219 172.265625 682.101562 172.367188 682.5 172.5 C 682.964844 172.632812 683.398438 172.800781 683.800781 173 C 684.132812 173.199219 684.5 173.398438 684.898438 173.601562 C 685.300781 173.867188 685.667969 174.132812 686 174.398438 C 686.265625 174.667969 686.535156 174.964844 686.800781 175.300781 C 687 175.632812 687.167969 176 687.300781 176.398438 C 687.433594 176.800781 687.5 177.199219 687.5 177.601562 C 687.5 178 687.433594 178.398438 687.300781 178.800781 C 691.601562 178.300781 695.398438 181.601562 696.898438 185.101562 C 698.699219 189.199219 698.199219 193.898438 697.601562 197.5 C 696.101562 206 693 212.601562 688.300781 217.101562 Z M 688.300781 217.101562 "/>
<path style=" stroke:none;fill-rule:nonzero;fill:rgb(94.901961%,94.901961%,94.901961%);fill-opacity:1;" d="M 791.398438 528.800781 L 792.300781 507.800781 C 794.765625 506.535156 797.265625 505.398438 799.800781 504.398438 C 802.332031 503.398438 804.933594 502.566406 807.601562 501.898438 C 810.265625 501.234375 812.964844 500.734375 815.699219 500.398438 C 818.433594 500.066406 821.167969 499.898438 823.898438 499.898438 C 808.699219 512.300781 810.601562 536.101562 800.300781 552.800781 C 798.699219 555.398438 796.832031 557.765625 794.699219 559.898438 C 792.5 562.101562 790.132812 564 787.601562 565.601562 C 785 567.199219 782.265625 568.535156 779.398438 569.601562 C 776.535156 570.601562 773.566406 571.265625 770.5 571.601562 L 757.800781 579.398438 C 757 574.5 756.601562 569.601562 756.800781 564.699219 C 757 559.800781 757.699219 554.898438 759 550.199219 C 760.199219 545.398438 761.898438 540.800781 764.199219 536.398438 C 766.398438 532 769.101562 527.898438 772.199219 524.101562 C 773.066406 523.035156 774 522 775 521 C 775.933594 520 776.898438 519.035156 777.898438 518.101562 C 778.898438 517.167969 779.933594 516.265625 781 515.398438 C 782.066406 514.535156 783.167969 513.699219 784.300781 512.898438 C 787.300781 520.898438 791.398438 528.800781 791.398438 528.800781 Z M 791.398438 528.800781 "/>
<path style=" stroke:none;fill-rule:nonzero;fill:rgb(24.705882%,23.921569%,33.725491%);fill-opacity:1;" d="M 366.5 423.601562 C 365.398438 423.601562 364.300781 423.398438 363.199219 423 C 362.199219 422.601562 361.199219 422 360.398438 421.199219 C 359.601562 420.5 359 419.601562 358.5 418.5 C 358 417.5 357.800781 416.398438 357.800781 415.300781 L 357.101562 391.300781 C 357 389.101562 357.898438 386.898438 359.398438 385.199219 C 361 383.601562 363.101562 382.699219 365.398438 382.601562 C 367.601562 382.5 369.800781 383.398438 371.398438 384.898438 C 373.101562 386.5 374 388.601562 374.101562 390.800781 L 374.800781 414.800781 C 374.800781 416 374.601562 417.101562 374.199219 418.101562 C 373.800781 419.101562 373.199219 420.101562 372.398438 420.898438 C 371.699219 421.699219 370.699219 422.398438 369.699219 422.800781 C 368.699219 423.300781 367.601562 423.5 366.5 423.601562 Z M 366.5 423.601562 "/>
<path style=" stroke:none;fill-rule:nonzero;fill:rgb(80.000001%,80.000001%,80.000001%);fill-opacity:1;" d="M 741.398438 511.199219 C 728.464844 511.199219 714.300781 510.734375 698.898438 509.800781 C 619.300781 504.699219 516.199219 487.199219 408.5 460.300781 C 300.898438 433.398438 201.601562 400.5 128.898438 367.601562 C 93.5 351.5 66.398438 336.300781 48.199219 322.398438 C 29 307.699219 20.5 294.800781 23.199219 284.300781 C 28.300781 263.601562 73.898438 259.101562 111.199219 259 L 111.300781 262 C 60 262.199219 29.699219 270.300781 26.101562 285 C 21.398438 303.601562 59.398438 332.699219 130.199219 364.800781 C 202.699219 397.699219 301.800781 430.601562 409.199219 457.398438 C 516.699219 484.199219 619.601562 501.699219 699.101562 506.800781 C 776.699219 511.699219 823.800781 503.898438 828.5 485.199219 C 832.300781 469.699219 806.898438 446.898438 756.800781 421 L 758.199219 418.300781 C 794.601562 437.199219 836.800781 464.199219 831.398438 485.898438 C 828.800781 496.5 815.300781 503.898438 791.398438 507.898438 C 777.699219 510.101562 761 511.199219 741.398438 511.199219 Z M 741.398438 511.199219 "/>
<path style=" stroke:none;fill-rule:nonzero;fill:rgb(80.000001%,80.000001%,80.000001%);fill-opacity:1;" d="M 56.101562 491.601562 C 45.800781 491.601562 39.199219 489 36.199219 484 C 30.398438 474 40.101562 456.5 65.101562 431.898438 L 67.199219 434.101562 C 44 456.898438 33.898438 474.101562 38.800781 482.5 C 41.898438 487.800781 51.101562 489.699219 65.398438 488 C 79.699219 486.300781 98.5 481.199219 121.5 472.898438 C 168.800781 455.898438 228.101562 427.101562 288.601562 391.898438 C 349 356.699219 403.300781 319.199219 441.5 286.5 C 448.800781 280.199219 455.5 274.199219 461.300781 268.601562 C 463.167969 266.734375 465.035156 264.867188 466.898438 263 C 468.699219 261.132812 470.464844 259.234375 472.199219 257.300781 C 474 255.367188 475.734375 253.367188 477.398438 251.300781 C 479.066406 249.300781 480.699219 247.265625 482.300781 245.199219 C 490.800781 233.601562 493.699219 224.601562 490.601562 219.300781 C 485.398438 210.398438 463.699219 211.199219 429.5 221.601562 L 428.601562 218.800781 C 465.398438 207.601562 487.101562 207.300781 493.199219 217.800781 C 497 224.300781 494.101562 234.101562 484.699219 247 C 483.101562 249.066406 481.433594 251.132812 479.699219 253.199219 C 478.035156 255.265625 476.300781 257.300781 474.5 259.300781 C 472.699219 261.234375 470.898438 263.167969 469.101562 265.101562 C 467.234375 267.035156 465.332031 268.898438 463.398438 270.699219 C 457.5 276.398438 450.800781 282.5 443.5 288.800781 C 405.101562 321.601562 350.699219 359.199219 290.101562 394.5 C 229.5 429.800781 170 458.601562 122.5 475.699219 C 99.300781 484.101562 80.300781 489.199219 65.800781 491 C 65 491.066406 64.199219 491.132812 63.398438 491.199219 C 62.601562 491.265625 61.765625 491.332031 60.898438 491.398438 C 60.101562 491.464844 59.300781 491.5 58.5 491.5 C 57.699219 491.566406 56.898438 491.601562 56.101562 491.601562 Z M 56.101562 491.601562 "/>
<path style=" stroke:none;fill-rule:nonzero;fill:rgb(90.196079%,90.196079%,90.196079%);fill-opacity:1;" d="M 604.398438 368.601562 C 604.667969 368.800781 604.898438 369 605.101562 369.199219 C 605.234375 369.464844 605.332031 369.765625 605.398438 370.101562 C 605.398438 370.367188 605.332031 370.632812 605.199219 370.898438 C 605.699219 372.398438 605.199219 380.800781 605.101562 382.398438 L 604.699219 383.398438 C 604.632812 383.535156 604.535156 383.667969 604.398438 383.800781 C 604.332031 383.933594 604.199219 384.035156 604 384.101562 C 603.867188 384.167969 603.734375 384.234375 603.601562 384.300781 C 603.398438 384.367188 603.234375 384.398438 603.101562 384.398438 C 602.300781 384.199219 538.101562 385.398438 537.398438 385 C 537.132812 384.867188 536.898438 384.699219 536.699219 384.5 C 536.5 384.234375 536.367188 383.964844 536.300781 383.699219 C 536.234375 383.433594 536.265625 383.132812 536.398438 382.800781 C 536.464844 382.535156 536.601562 382.300781 536.800781 382.101562 C 537.101562 382 549.5 366.101562 549.800781 367.398438 C 556.398438 367.101562 596.199219 368.300781 603.601562 368.398438 C 603.933594 368.398438 604.199219 368.464844 604.398438 368.601562 Z M 604.398438 368.601562 "/>
<use xlink:href="#surface5" mask="url(#mask0)"/>
<path style=" stroke:none;fill-rule:nonzero;fill:rgb(90.196079%,90.196079%,90.196079%);fill-opacity:1;" d="M 541.398438 381.898438 C 541.265625 382.167969 541.101562 382.433594 540.898438 382.699219 C 540.699219 382.898438 540.5 383.101562 540.300781 383.300781 C 540.035156 383.5 539.734375 383.667969 539.398438 383.800781 C 539.132812 383.867188 538.832031 383.933594 538.5 384 C 538.300781 384.066406 538.066406 384.066406 537.800781 384 C 537.535156 383.933594 537.300781 383.832031 537.101562 383.699219 C 536.832031 383.566406 536.632812 383.398438 536.5 383.199219 C 536.367188 382.933594 536.265625 382.667969 536.199219 382.398438 L 534.101562 367.300781 C 533.699219 355.5 515.800781 279.300781 513 265.898438 C 512.699219 263.699219 516.199219 263.101562 517.699219 263.898438 L 518.699219 264.699219 L 530.601562 279.300781 C 532 280 549.398438 366 550.101562 367.199219 C 550.898438 367.5 541.601562 381.398438 541.398438 381.898438 Z M 541.398438 381.898438 "/>
<use xlink:href="#surface8" mask="url(#mask1)"/>
<path style=" stroke:none;fill-rule:nonzero;fill:rgb(5.490196%,63.529414%,74.117649%);fill-opacity:1;" d="M 519.398438 269.5 L 530.898438 285.601562 L 543.898438 347.101562 L 537.898438 352.300781 Z M 519.398438 269.5 "/>
<path style=" stroke:none;fill-rule:nonzero;fill:rgb(18.431373%,18.039216%,25.490198%);fill-opacity:1;" d="M 596.398438 375.699219 C 596.398438 375.367188 596.433594 375 596.5 374.601562 C 596.566406 374.265625 596.601562 373.933594 596.601562 373.601562 C 596.667969 373.265625 596.699219 372.898438 596.699219 372.5 C 596.898438 370.699219 597.398438 369 598.699219 369.101562 C 600.699219 369.101562 600.300781 371.800781 599.800781 374.101562 C 599.734375 374.300781 599.667969 374.535156 599.601562 374.800781 C 599.601562 375 599.566406 375.199219 599.5 375.398438 C 599.433594 375.667969 599.398438 375.898438 599.398438 376.101562 C 599.398438 376.367188 599.367188 376.601562 599.300781 376.800781 L 596.199219 376.699219 C 596.265625 376.367188 596.332031 376.035156 596.398438 375.699219 Z M 596.398438 375.699219 "/>
<path style=" stroke:none;fill-rule:nonzero;fill:rgb(18.431373%,18.039216%,25.490198%);fill-opacity:1;" d="M 577.898438 372.101562 C 577.898438 371.601562 577.898438 370.898438 577.898438 370.300781 C 578 369.199219 578.398438 368.300781 579.601562 368.300781 C 579.667969 368.300781 579.734375 368.300781 579.800781 368.300781 C 579.867188 368.367188 579.933594 368.398438 580 368.398438 C 580 368.398438 580.035156 368.398438 580.101562 368.398438 C 580.167969 368.398438 580.234375 368.433594 580.300781 368.5 C 581.601562 369.101562 581 371.398438 581 372.5 L 580 372.5 L 577.898438 372.398438 C 577.898438 372.332031 577.898438 372.234375 577.898438 372.101562 Z M 577.898438 372.101562 "/>
<path style=" stroke:none;fill-rule:nonzero;fill:rgb(18.431373%,18.039216%,25.490198%);fill-opacity:1;" d="M 571.5 371.800781 C 571.601562 370.398438 571.300781 368 573.199219 368.101562 C 575.300781 368.101562 574.699219 371 574.699219 372.300781 L 573.601562 372.300781 L 571.5 372.199219 C 571.5 372.066406 571.5 371.933594 571.5 371.800781 Z M 571.5 371.800781 "/>
<path style=" stroke:none;fill-rule:nonzero;fill:rgb(18.431373%,18.039216%,25.490198%);fill-opacity:1;" d="M 565.101562 371.601562 C 565.199219 370.199219 564.898438 367.699219 566.898438 367.800781 C 569 367.898438 568.300781 370.699219 568.300781 372 L 567.300781 372 L 565.101562 371.898438 C 565.101562 371.832031 565.101562 371.734375 565.101562 371.601562 Z M 565.101562 371.601562 "/>
<path style=" stroke:none;fill-rule:nonzero;fill:rgb(18.431373%,18.039216%,25.490198%);fill-opacity:1;" d="M 558.800781 371.300781 C 558.800781 369.898438 558.601562 367.5 560.5 367.601562 C 562.601562 367.601562 561.898438 370.5 561.898438 371.800781 L 560.898438 371.699219 L 558.699219 371.699219 C 558.765625 371.566406 558.800781 371.433594 558.800781 371.300781 Z M 558.800781 371.300781 "/>
<path style=" stroke:none;fill-rule:nonzero;fill:rgb(18.431373%,18.039216%,25.490198%);fill-opacity:1;" d="M 552.398438 371.101562 C 552.398438 369.800781 552.199219 367.699219 553.601562 367.398438 C 553.667969 367.398438 553.699219 367.367188 553.699219 367.300781 C 553.765625 367.300781 553.832031 367.300781 553.898438 367.300781 C 553.898438 367.300781 553.933594 367.300781 554 367.300781 C 554.066406 367.300781 554.101562 367.300781 554.101562 367.300781 C 554.167969 367.300781 554.234375 367.300781 554.300781 367.300781 C 554.300781 367.300781 554.332031 367.300781 554.398438 367.300781 C 554.398438 367.300781 554.433594 367.332031 554.5 367.398438 C 554.5 367.398438 554.535156 367.398438 554.601562 367.398438 C 556.101562 367.800781 555.5 370.300781 555.601562 371.5 L 554.5 371.5 L 552.398438 371.398438 C 552.398438 371.265625 552.398438 371.167969 552.398438 371.101562 Z M 552.398438 371.101562 "/>
<path style=" stroke:none;fill-rule:nonzero;fill:rgb(18.431373%,18.039216%,25.490198%);fill-opacity:1;" d="M 589.800781 368.5 C 589.800781 368.5 589.800781 368.464844 589.800781 368.398438 C 589.800781 368.398438 589.800781 368.367188 589.800781 368.300781 C 589.867188 368.300781 589.898438 368.265625 589.898438 368.199219 C 589.898438 368.132812 589.898438 368.101562 589.898438 368.101562 C 590 367.199219 590.5 366.601562 591.5 366.601562 C 592.5 366.699219 592.898438 367.300781 593 368.199219 C 593 368.332031 593 368.5 593 368.699219 C 593 368.898438 593 369.101562 593 369.300781 C 593 369.5 593 369.699219 593 369.898438 C 593 370.101562 592.964844 370.300781 592.898438 370.5 C 592.898438 370.632812 592.898438 370.765625 592.898438 370.898438 L 589.699219 370.699219 C 589.800781 370.199219 589.699219 369.300781 589.800781 368.5 Z M 589.800781 368.5 "/>
<path style=" stroke:none;fill-rule:nonzero;fill:rgb(18.431373%,18.039216%,25.490198%);fill-opacity:1;" d="M 583.5 367.898438 C 583.601562 367 584.101562 366.300781 585.101562 366.398438 C 586.199219 366.398438 586.5 367.101562 586.601562 368 C 586.601562 368.199219 586.601562 368.433594 586.601562 368.699219 C 586.601562 368.898438 586.601562 369.101562 586.601562 369.300781 C 586.601562 369.5 586.601562 369.699219 586.601562 369.898438 C 586.601562 370.167969 586.566406 370.398438 586.5 370.601562 L 583.398438 370.5 C 583.398438 369.800781 583.300781 368.800781 583.5 367.898438 Z M 583.5 367.898438 "/>
<path style=" stroke:none;fill-rule:nonzero;fill:rgb(18.431373%,18.039216%,25.490198%);fill-opacity:1;" d="M 577.101562 367.800781 C 577.199219 366.800781 577.601562 366.101562 578.699219 366.101562 C 579.800781 366.199219 580.199219 366.898438 580.199219 367.898438 C 580.265625 367.898438 580.300781 367.933594 580.300781 368 C 580.300781 368.066406 580.300781 368.132812 580.300781 368.199219 C 580.300781 368.199219 580.300781 368.234375 580.300781 368.300781 C 580.300781 368.367188 580.300781 368.433594 580.300781 368.5 C 580.300781 369.199219 580.199219 369.898438 580.199219 370.300781 L 577.898438 370.300781 L 577 370.199219 C 577 369.601562 577 368.601562 577.101562 367.800781 Z M 577.101562 367.800781 "/>
<path style=" stroke:none;fill-rule:nonzero;fill:rgb(18.431373%,18.039216%,25.490198%);fill-opacity:1;" d="M 591.5 372.398438 C 593.601562 372.398438 593 375.300781 593 376.601562 L 589.800781 376.5 C 589.898438 375.199219 589.398438 372.300781 591.5 372.398438 Z M 591.5 372.398438 "/>
<path style=" stroke:none;fill-rule:nonzero;fill:rgb(18.431373%,18.039216%,25.490198%);fill-opacity:1;" d="M 585.199219 372.101562 C 587.300781 372.199219 586.601562 375 586.601562 376.300781 L 583.398438 376.199219 C 583.5 374.898438 583.101562 372 585.199219 372.101562 Z M 585.199219 372.101562 "/>
<path style=" stroke:none;fill-rule:nonzero;fill:rgb(18.431373%,18.039216%,25.490198%);fill-opacity:1;" d="M 577.898438 372.101562 C 577.964844 372.035156 578.035156 372 578.101562 372 C 578.167969 371.933594 578.234375 371.898438 578.300781 371.898438 C 578.367188 371.898438 578.464844 371.898438 578.601562 371.898438 C 578.667969 371.898438 578.734375 371.898438 578.800781 371.898438 C 578.933594 371.898438 579.066406 371.898438 579.199219 371.898438 C 579.265625 371.898438 579.367188 371.933594 579.5 372 C 579.632812 372.066406 579.734375 372.132812 579.800781 372.199219 C 579.867188 372.265625 579.933594 372.367188 580 372.5 C 580.601562 373.398438 580.199219 375.101562 580.199219 376.101562 L 577 376 C 577.101562 374.898438 576.898438 372.800781 577.898438 372.101562 Z M 577.898438 372.101562 "/>
<path style=" stroke:none;fill-rule:nonzero;fill:rgb(18.431373%,18.039216%,25.490198%);fill-opacity:1;" d="M 571.5 371.800781 C 571.566406 371.800781 571.632812 371.765625 571.699219 371.699219 C 571.765625 371.699219 571.867188 371.667969 572 371.601562 C 572.066406 371.601562 572.132812 371.601562 572.199219 371.601562 C 572.265625 371.601562 572.332031 371.601562 572.398438 371.601562 C 572.535156 371.601562 572.667969 371.601562 572.800781 371.601562 C 572.933594 371.667969 573.035156 371.734375 573.101562 371.800781 C 573.234375 371.800781 573.332031 371.867188 573.398438 372 C 573.535156 372.066406 573.601562 372.167969 573.601562 372.300781 C 574.199219 373.199219 573.898438 374.898438 573.898438 375.800781 L 570.699219 375.699219 C 570.800781 374.601562 570.5 372.5 571.5 371.800781 Z M 571.5 371.800781 "/>
<path style=" stroke:none;fill-rule:nonzero;fill:rgb(18.431373%,18.039216%,25.490198%);fill-opacity:1;" d="M 565.101562 371.601562 C 565.167969 371.535156 565.265625 371.5 565.398438 371.5 C 565.464844 371.433594 565.535156 371.398438 565.601562 371.398438 C 565.667969 371.398438 565.734375 371.398438 565.800781 371.398438 C 565.867188 371.332031 565.964844 371.332031 566.101562 371.398438 C 566.167969 371.398438 566.265625 371.398438 566.398438 371.398438 C 566.535156 371.398438 566.667969 371.433594 566.800781 371.5 C 566.867188 371.566406 566.933594 371.632812 567 371.699219 C 567.132812 371.765625 567.234375 371.867188 567.300781 372 C 567.800781 372.898438 567.5 374.601562 567.5 375.601562 L 564.300781 375.398438 C 564.398438 374.398438 564.101562 372.300781 565.101562 371.601562 Z M 565.101562 371.601562 "/>
<path style=" stroke:none;fill-rule:nonzero;fill:rgb(18.431373%,18.039216%,25.490198%);fill-opacity:1;" d="M 558.800781 371.300781 C 558.867188 371.300781 558.933594 371.265625 559 371.199219 C 559.066406 371.199219 559.132812 371.167969 559.199219 371.101562 C 559.265625 371.101562 559.367188 371.101562 559.5 371.101562 C 559.566406 371.101562 559.632812 371.101562 559.699219 371.101562 C 559.832031 371.101562 559.964844 371.101562 560.101562 371.101562 C 560.167969 371.167969 560.265625 371.234375 560.398438 371.300781 C 560.535156 371.300781 560.632812 371.367188 560.699219 371.5 C 560.765625 371.566406 560.832031 371.632812 560.898438 371.699219 C 561.5 372.699219 561.101562 374.398438 561.101562 375.300781 L 557.898438 375.199219 C 558 374.101562 557.699219 372 558.800781 371.300781 Z M 558.800781 371.300781 "/>
<path style=" stroke:none;fill-rule:nonzero;fill:rgb(18.431373%,18.039216%,25.490198%);fill-opacity:1;" d="M 552.398438 371.101562 C 552.464844 371.035156 552.535156 371 552.601562 371 C 552.667969 370.933594 552.734375 370.898438 552.800781 370.898438 C 552.933594 370.898438 553.035156 370.867188 553.101562 370.800781 C 553.167969 370.800781 553.234375 370.832031 553.300781 370.898438 C 553.433594 370.832031 553.566406 370.832031 553.699219 370.898438 C 553.832031 370.898438 553.933594 370.933594 554 371 C 554.132812 371.066406 554.234375 371.132812 554.300781 371.199219 C 554.367188 371.265625 554.433594 371.367188 554.5 371.5 C 555.101562 372.398438 554.699219 374.101562 554.800781 375.101562 L 551.601562 374.898438 C 551.699219 373.898438 551.398438 371.800781 552.398438 371.101562 Z M 552.398438 371.101562 "/>
<path style=" stroke:none;fill-rule:nonzero;fill:rgb(62.7451%,38.039216%,41.568628%);fill-opacity:1;" d="M 586.699219 374.699219 C 584.5 377.199219 581.101562 378.101562 578 377 C 574.898438 375.898438 572.699219 373 572.699219 369.699219 C 572.601562 366.398438 574.5 363.398438 577.601562 362.199219 C 577.898438 360.898438 591.5 316.699219 596.601562 308.699219 C 601.699219 300.5 606.699219 284.601562 606.699219 284.601562 L 621.101562 292.800781 L 611.898438 314.300781 L 587.601562 365.699219 C 589.199219 368.601562 588.800781 372.199219 586.699219 374.699219 Z M 586.699219 374.699219 "/>
<path style=" stroke:none;fill-rule:nonzero;fill:rgb(5.490196%,63.529414%,74.117649%);fill-opacity:1;" d="M 587.398438 315.101562 C 587.535156 314.167969 587.832031 313.234375 588.300781 312.300781 C 588.765625 311.433594 589.367188 310.667969 590.101562 310 C 590.832031 309.332031 591.632812 308.800781 592.5 308.398438 C 592.898438 308.199219 593.199219 308.101562 593.300781 307.800781 C 598.300781 293 608.601562 266.5 620.699219 258.300781 C 624.5 255.699219 627.300781 252.699219 630.398438 251.101562 L 630.398438 251 L 647.898438 248.398438 L 634.398438 291.300781 L 624.300781 301.699219 L 612.800781 321.398438 L 610 322.898438 L 605.800781 329.199219 L 587.398438 318.101562 C 587.265625 317.101562 587.265625 316.101562 587.398438 315.101562 Z M 587.398438 315.101562 "/>
</g>
</svg>
